<svg width="188" height="222" viewBox="0 0 239 239" fill="none" xmlns="http://www.w3.org/2000/svg">
<path d="M157.606 71.8437L147.655 75.8239C145.566 74.2319 143.376 72.9383 140.988 71.9432L139.496 61.3957C139.297 60.4006 138.501 59.7041 137.506 59.7041H121.585C120.59 59.7041 119.794 60.4006 119.694 61.3957L118.202 71.9432C115.814 72.9383 113.525 74.2319 111.535 75.8239L101.584 71.8437C100.689 71.5452 99.5942 71.8437 99.1962 72.7393L91.2358 86.471C90.9891 86.8888 90.9035 87.3823 90.9952 87.8587C91.0868 88.3351 91.3493 88.7617 91.7333 89.0581L100.191 95.6255C99.8927 96.8195 99.6937 98.2126 99.6937 99.5062C99.6937 100.8 99.7932 102.093 99.9922 103.387L91.6338 109.954C91.2572 110.233 90.9978 110.643 90.9059 111.102C90.8139 111.562 90.896 112.039 91.1363 112.442L99.0967 126.273C99.5942 127.169 100.589 127.467 101.584 127.169L111.435 123.188C113.525 124.781 115.714 126.074 118.202 127.069L119.595 137.617C119.794 138.612 120.59 139.308 121.585 139.308H137.506C138.501 139.308 139.297 138.612 139.496 137.617L140.988 127.069C143.376 126.074 145.665 124.781 147.655 123.188L157.506 127.169C158.402 127.567 159.496 127.169 159.894 126.273L167.855 112.442C168.352 111.546 168.153 110.551 167.357 109.954L159.098 103.387C159.495 100.815 159.495 98.1974 159.098 95.6255L167.556 89.0581C167.94 88.7617 168.203 88.3351 168.294 87.8587C168.386 87.3823 168.3 86.8888 168.054 86.471L160.093 72.7393C159.596 71.8437 158.501 71.5452 157.606 71.8437ZM129.545 113.735C127.677 113.735 125.826 113.367 124.1 112.652C122.374 111.937 120.805 110.889 119.484 109.568C118.162 108.246 117.114 106.678 116.399 104.951C115.684 103.225 115.316 101.375 115.316 99.5062C115.316 97.6376 115.684 95.7873 116.399 94.0609C117.114 92.3345 118.162 90.7659 119.484 89.4446C120.805 88.1233 122.374 87.0752 124.1 86.3601C125.826 85.645 127.677 85.2769 129.545 85.2769C133.319 85.2769 136.938 86.7761 139.607 89.4446C142.275 92.1131 143.775 95.7324 143.775 99.5062C143.775 103.28 142.275 106.899 139.607 109.568C136.938 112.236 133.319 113.735 129.545 113.735Z" fill="#033344"/>
<path d="M198.6 90.1527C194.321 57.6145 166.46 31.8426 133.623 29.952C132.23 29.8525 130.937 29.8525 129.543 29.8525C94.4181 29.8525 65.5616 55.8234 60.6858 89.5557L41.4813 124.183C37.4016 130.751 42.1778 139.308 49.9392 139.308H59.8898V159.209C59.8898 170.155 68.8452 179.11 79.7908 179.11H89.7413V208.962H159.395V162.394C172.731 156.047 183.711 145.635 190.756 132.654C197.8 119.673 200.547 104.793 198.6 90.1527ZM148.35 145.577L139.494 149.756V189.061H109.642V159.209H79.7908V119.407H66.8551L80.0893 96.2225C81.8804 70.2517 103.175 49.7536 129.543 49.7536C157.007 49.7536 179.296 72.0428 179.296 99.5062C179.296 120.303 166.46 138.114 148.35 145.577Z" fill="#033344"/>
</svg>
