<svg width="188" height="222" viewBox="0 0 188 222" fill="none" xmlns="http://www.w3.org/2000/svg">
<path d="M119.984 69.3791L159.676 42.4971L120.794 0.873047L95.6833 60.7074L81.1027 13.8805L42.221 41.6297L74.6222 69.3789H0.90918V124.878H13.8697V222H174.257V124.878H187.217V69.3791H119.984ZM124.074 19.0996L144.419 40.8797L102.918 69.0531L124.074 19.0996ZM75.9053 30.0961L87.3932 66.9904L58.6733 42.3942L75.9053 30.0961ZM81.1027 208.125H26.8303V120.531H81.1027V208.125ZM81.1027 111.003H13.8697V83.2537H81.1027V111.003ZM161.296 208.125H107.024V120.531H161.296V208.125ZM174.257 111.003H107.024V83.2537H174.257V111.003Z" fill="#033344"/>
</svg>
