<svg width="188" height="222" viewBox="0 0 197 197" fill="none" xmlns="http://www.w3.org/2000/svg">
<path fill-rule="evenodd" clip-rule="evenodd" d="M98.1135 0.273438C43.9358 0.273438 0.0253906 44.2704 0.0253906 98.5345C0.0253906 152.799 43.9482 196.796 98.1135 196.796C152.279 196.796 196.202 152.799 196.202 98.5345C196.202 44.2704 152.291 0.273438 98.1135 0.273438ZM92.01 24.885C102.364 24.885 110.778 32.9653 110.778 42.9237C110.778 52.882 102.364 60.9623 92.01 60.9623C81.6316 60.9623 73.2424 52.882 73.2424 42.9237C73.2424 32.9653 81.6316 24.885 92.01 24.885ZM98.7436 183.81C61.0478 183.81 28.4053 134.513 99.559 98.2627C164.498 65.2001 134.191 8.81089 98.7436 12.0727C152.798 12.0727 184.476 50.5098 184.476 97.9414C184.489 145.373 146.089 183.81 98.7436 183.81Z" fill="#033344"/>
</svg>
